<svg width="65" height="58" viewBox="0 0 65 58" fill="none" xmlns="http://www.w3.org/2000/svg">
<path fill-rule="evenodd" clip-rule="evenodd" d="M46.3376 13.5335C46.3376 21.0078 40.1423 27.0669 32.5 27.0669C24.8577 27.0669 18.6624 21.0078 18.6624 13.5335C18.6624 6.05914 24.8577 0 32.5 0C40.1423 0 46.3376 6.05914 46.3376 13.5335ZM41.7251 13.5335C41.7251 18.5164 37.5949 22.5558 32.5 22.5558C27.4051 22.5558 23.2749 18.5164 23.2749 13.5335C23.2749 8.55059 27.4051 4.51116 32.5 4.51116C37.5949 4.51116 41.7251 8.55059 41.7251 13.5335Z" fill="#BC121B"/>
<path d="M32.5 33.8337C17.5683 33.8337 4.84619 42.469 0 54.5671C1.18057 55.7136 2.4242 56.7981 3.72538 57.8151C7.33409 46.7078 18.6548 38.3448 32.5 38.3448C46.3452 38.3448 57.6659 46.7078 61.2746 57.8152C62.5758 56.7981 63.8194 55.7136 65 54.5671C60.1538 42.469 47.4317 33.8337 32.5 33.8337Z" fill="#BC121B"/>
</svg>
