<svg width="141" height="129" viewBox="0 0 141 129" fill="none" xmlns="http://www.w3.org/2000/svg">
<path fill-rule="evenodd" clip-rule="evenodd" d="M100.517 30.0169C100.517 46.5948 87.0779 60.0339 70.5 60.0339C53.9221 60.0339 40.483 46.5948 40.483 30.0169C40.483 13.439 53.9221 0 70.5 0C87.0779 0 100.517 13.439 100.517 30.0169ZM90.5113 30.0169C90.5113 41.0689 81.5519 50.0282 70.5 50.0282C59.448 50.0282 50.4887 41.0689 50.4887 30.0169C50.4887 18.965 59.448 10.0056 70.5 10.0056C81.5519 10.0056 90.5113 18.965 90.5113 30.0169Z" fill="#BC121B"/>
<path d="M70.5 75.0423C38.1098 75.0423 10.5125 94.1952 0 121.029C2.56092 123.572 5.25866 125.977 8.0812 128.233C15.9093 103.597 40.4666 85.048 70.5 85.048C100.533 85.048 125.091 103.597 132.919 128.233C135.741 125.977 138.439 123.572 141 121.029C130.488 94.1952 102.89 75.0423 70.5 75.0423Z" fill="#BC121B"/>
</svg>
